#!OML:ASF H:\Not Pregnant\Project 1\Capture day 1\Session 1\non-pregnant.ASF
:FULLY-SPECIFIED
:DEGREES
173
root -3.4879 12.2867 38.0022 191.233 -61.5367 -176.535
lowerback 5.46207 4.45035 5.0705
upperback -3.5718 6.33062 -0.485702
thorax -6.19239 2.88045 -3.98044
lowerneck 6.64423 0.0752289 -26.8559
upperneck 12.7115 -9.19869 45.2032
head 6.24021 -6.6667 27.0689
rclavicle -4.91992e-014 3.97569e-016
rhumerus -75.9881 -51.9323 -12.3922
rradius 31.1451
rwrist -19.8351
rhand -38.3405 -46.7586
rfingers 7.12502
rthumb -11.3677 -76.4305
lclavicle -4.91992e-014 3.97569e-016
lhumerus -42.831 37.932 28.856
lradius 47.5142
lwrist 92.1372
lhand -34.9239 -10.1368
lfingers 7.12502
lthumb -8.07135 19.6891
rfemur -23.3326 -24.5548 20.3582
rtibia 82.767
rfoot -36.8689 20.4973
rtoes -35.7493
lfemur -71.4 15.9995 -36.864
ltibia 87.5209
lfoot -32.6478 5.87699
ltoes -0.128286
174
root -3.49577 12.2975 38.0076 191.391 -61.5205 -176.709
lowerback 5.46771 4.46852 5.2247
upperback -3.61867 6.36739 -0.510009
thorax -6.2235 2.88872 -4.09659
lowerneck 6.64021 0.0742735 -26.9281
upperneck 12.7857 -9.18136 45.1001
head 6.24322 -6.64247 26.9827
rclavicle -5.96354e-016 -2.38542e-014
rhumerus -76.0116 -51.9384 -12.3563
rradius 31.1733
rwrist -19.9631
rhand -38.346 -46.8955
rfingers 7.12502
rthumb -11.3729 -76.5671
lclavicle -5.96354e-016 -2.38542e-014
lhumerus -42.6667 37.7262 29.0714
lradius 47.572
lwrist 91.9666
lhand -34.7708 -10.0045
lfingers 7.12502
lthumb -7.92354 19.827
rfemur -23.2794 -24.3627 20.3274
rtibia 82.6244
rfoot -36.9851 20.0596
rtoes -35.9996
lfemur -71.266 15.9611 -36.958
ltibia 87.3626
lfoot -32.6235 5.87253
ltoes -0.0216126
175
root -3.50403 12.3096 38.0127 191.556 -61.4949 -176.884
lowerback 5.45656 4.48121 5.35784
upperback -3.65705 6.39449 -0.521733
thorax -6.24034 2.89408 -4.18516
lowerneck 6.6168 0.0742105 -27.0033
upperneck 12.869 -9.15719 44.986
head 6.24869 -6.61147 26.8858
rclavicle 2.44505e-014 -7.55382e-015
rhumerus -75.9263 -51.9712 -12.4098
rradius 31.2074
rwrist -20.0952
rhand -38.3472 -47.015
rfingers 7.12502
rthumb -11.3742 -76.6866
lclavicle 2.44505e-014 -7.55382e-015
lhumerus -42.5532 37.5527 29.2597
lradius 47.6205
lwrist 91.8049
lhand -34.6083 -9.89802
lfingers 7.12502
lthumb -7.76677 19.9393
rfemur -23.2219 -24.1632 20.2979
rtibia 82.4601
rfoot -37.0969 19.6214
rtoes -36.2386
lfemur -71.1282 15.9284 -37.0535
ltibia 87.1911
lfoot -32.5956 5.87699
ltoes 0.0547479
176
root -3.51273 12.323 38.0174 191.719 -61.4614 -177.051
lowerback 5.42899 4.49336 5.48009
upperback -3.68791 6.41896 -0.528208
thorax -6.24167 2.8995 -4.25998
lowerneck 6.57532 0.0724543 -27.0771
upperneck 12.9587 -9.1334 44.869
head 6.26075 -6.57928 26.7873
rclavicle 6.1822e-014 6.75868e-015
rhumerus -75.7638 -52.027 -12.5456
rradius 31.262
rwrist -20.2289
rhand -38.3339 -47.095
rfingers 7.12502
rthumb -11.3613 -76.7672
lclavicle 6.1822e-014 6.75868e-015
lhumerus -42.4625 37.4015 29.4333
lradius 47.6577
lwrist 91.662
lhand -34.4471 -9.80768
lfingers 7.12502
lthumb -7.61113 20.0354
rfemur -23.1586 -23.9554 20.2749
rtibia 82.2725
rfoot -37.2028 19.1873
rtoes -36.4523
lfemur -70.9884 15.9033 -37.146
ltibia 87.0085
lfoot -32.5665 5.88284
ltoes 0.122691
177
root -3.52176 12.3374 38.0218 191.871 -61.4241 -177.2
lowerback 5.3762 4.49483 5.58641
upperback -3.70561 6.4267 -0.514866
thorax -6.22011 2.89899 -4.30078
lowerneck 6.50665 0.0744058 -27.1641
upperneck 13.0627 -9.09662 44.7384
head 6.27606 -6.53692 26.6817
rclavicle 2.17669e-014 -5.96354e-015
rhumerus -75.4703 -52.1112 -12.79
rradius 31.3189
rwrist -20.3356
rhand -38.2992 -47.1304
rfingers 7.12502
rthumb -11.3279 -76.8045
lclavicle 2.17669e-014 -5.96354e-015
lhumerus -42.4345 37.3007 29.5696
lradius 47.6878
lwrist 91.5342
lhand -34.2997 -9.74089
lfingers 7.12502
lthumb -7.46887 20.1073
rfemur -23.0882 -23.7457 20.2618
rtibia 82.0609
rfoot -37.3031 18.7631
rtoes -36.6559
lfemur -70.8498 15.8827 -37.231
ltibia 86.817
lfoot -32.5335 5.90041
ltoes 0.144221
178
root -3.53116 12.353 38.0255 192.024 -61.3815 -177.345
lowerback 5.31435 4.49125 5.67666
upperback -3.72313 6.42593 -0.494096
thorax -6.19659 2.89521 -4.32343
lowerneck 6.42618 0.0787992 -27.2603
upperneck 13.1806 -9.0595 44.6066
head 6.29964 -6.49556 26.585
rclavicle -4.08502e-014 -2.14687e-014
rhumerus -75.092 -52.1982 -13.1284
rradius 31.3923
rwrist -20.4207
rhand -38.2416 -47.1278
rfingers 7.12502
rthumb -11.2723 -76.8049
lclavicle -4.08502e-014 -2.14687e-014
lhumerus -42.4476 37.2201 29.672
lradius 47.707
lwrist 91.4146
lhand -34.1719 -9.65607
lfingers 7.12502
lthumb -7.3455 20.1964
rfemur -23.0087 -23.5397 20.2491
rtibia 81.8252
rfoot -37.3971 18.3593
rtoes -36.845
lfemur -70.7082 15.869 -37.3134
ltibia 86.616
lfoot -32.5028 5.91241
ltoes 0.181309
179
root -3.54085 12.3696 38.0284 192.173 -61.336 -177.482
lowerback 5.24874 4.4895 5.75885
upperback -3.74284 6.42653 -0.47432
thorax -6.1738 2.89236 -4.34256
lowerneck 6.35557 0.0844454 -27.3301
upperneck 13.2984 -9.02459 44.4773
head 6.31989 -6.45509 26.4789
rclavicle 3.4191e-014 -1.43125e-014
rhumerus -74.6748 -52.2923 -13.5212
rradius 31.4751
rwrist -20.4783
rhand -38.1721 -47.1203
rfingers 7.12502
rthumb -11.2052 -76.801
lclavicle 3.4191e-014 -1.43125e-014
lhumerus -42.4721 37.1554 29.751
lradius 47.7107
lwrist 91.2881
lhand -34.0703 -9.53693
lfingers 7.12502
lthumb -7.24746 20.319
rfemur -22.9165 -23.3433 20.2354
rtibia 81.5647
rfoot -37.4828 17.9829
rtoes -37.0224
lfemur -70.5627 15.861 -37.3908
ltibia 86.4059
lfoot -32.4703 5.9275
ltoes 0.19357
